<?xml version="1.0" encoding="UTF-8"?><svg id="logo" xmlns="http://www.w3.org/2000/svg" viewBox="0 0 640 640"><defs><style>.cls-1{fill:#fccd0d;}.cls-2,.cls-3{fill:#fff;}.cls-3{opacity:.4;stroke:#000;stroke-miterlimit:10;stroke-width:.1px;}.cls-4{fill:#176fae;}.cls-5{fill:#23acbe;}.cls-6{fill:#f45ead;}</style></defs><g><circle class="cls-1" cx="318.49" cy="317.52" r="220"/><circle class="cls-1" cx="318.49" cy="317.52" r="220"/></g><path class="cls-4" d="m416.47,139.41L116.36,338.81c-.74-7-1.11-14.1-1.11-21.29,0-.43,0-.86.01-1.29l254.48-195.44c16.48,4.28,32.15,10.58,46.73,18.62Z"/><path class="cls-3" d="m436.53,152.04l-306.75,241.07c-6.85-17.08-11.45-35.3-13.42-54.3l300.11-199.4c6.95,3.82,13.64,8.04,20.06,12.63Z"/><path class="cls-3" d="m494.14,215.21s-183.91,165.56-295.48,266.48c-18.42-13.46-34.48-29.94-47.45-48.71t.02.01c.53.77,224.22-182.59,313.93-256.17,11.11,11.57,20.85,24.44,28.98,38.38h0Z"/><path class="cls-4" d="m521.74,317.52c0,13.22-1.26,26.15-3.68,38.66-70.75,61.88-181.53,158.61-189.13,164.33-3.46.17-6.94.26-10.44.26-10.13,0-20.08-.74-29.81-2.17l232.97-206.99c.06,1.96.09,3.93.09,5.91Z"/><path class="cls-3" d="m328.93,520.51c7.6-5.72,118.38-102.45,189.13-164.33-17.41,90.45-94.78,159.55-189.13,164.33Z"/><path class="cls-6" d="m328.88,114.53c-3.44-.17-6.91-.26-10.39-.26-67.77,0-127.79,33.17-164.71,84.16l-29.36,22.65c-1.59,1.23-1.89,3.52-.66,5.11.72.93,1.8,1.42,2.89,1.42.78,0,1.56-.25,2.23-.76l13.07-10.08c-6.2,10.84-11.44,22.31-15.58,34.29l202.51-136.53Z"/><path class="cls-6" d="m465.25,122.2c-1.21-1.61-3.5-1.93-5.11-.71l-32.5,24.56c-3.65-2.33-7.37-4.55-11.17-6.64L116.36,338.81c1.32,12.7,3.81,25.05,7.37,36.94l-14.08,10.64c-1.61,1.21-1.92,3.5-.71,5.11.72.95,1.81,1.45,2.91,1.45.77,0,1.54-.24,2.2-.74l12.03-9.09c1.15,3.37,2.38,6.7,3.7,9.99l306.75-241.07c-.81-.58-1.64-1.14-2.46-1.71l30.47-23.03c1.61-1.21,1.92-3.5.71-5.11Z"/><path class="cls-5" d="m436.53,152.04l-306.75,241.07c2.96,7.4,6.36,14.58,10.14,21.52l-21.38,15.4c-1.63,1.18-2,3.46-.83,5.09.71.99,1.83,1.52,2.96,1.52.74,0,1.48-.22,2.13-.69l20.74-14.94c2.42,4.08,4.96,8.08,7.65,11.97h.01s0,0,.02.01c.53.77,224.22-182.59,313.93-256.17-8.74-9.12-18.32-17.42-28.63-24.78Z"/><path class="cls-6" d="m530.51,231.35c-1.33-1.51-3.64-1.66-5.15-.33l-16.69,14.68c-4.01-10.61-8.88-20.81-14.54-30.49,0,0-183.91,165.56-295.48,266.48,15.93,11.66,33.63,21.05,52.61,27.7.04,0,.08.01.11.02,1.3.46,193.6-175.45,264.54-240.39-1.32-5.4-2.87-10.7-4.61-15.92l18.87-16.61c1.51-1.33,1.66-3.63.33-5.15Z"/><path class="cls-4" d="m465.16,176.82c-89.71,73.58-313.4,256.94-313.93,256.17t-.02-.01c9.88,14.29,21.55,27.25,34.69,38.57l-37.12,33.28c-1.5,1.34-1.63,3.65-.28,5.15.72.8,1.72,1.21,2.72,1.21.87,0,1.74-.31,2.43-.93l37.92-34c2.32,1.86,4.69,3.67,7.09,5.43,111.57-100.92,295.48-266.48,295.48-266.48h0c-8.13-13.95-17.87-26.82-28.98-38.39Z"/><path class="cls-5" d="m537.55,359.87c-1.35-1.5-3.66-1.62-5.15-.27l-19.59,17.64c2.11-6.87,3.87-13.9,5.24-21.06-70.75,61.88-181.53,158.61-189.13,164.33,81.6-4.13,150.5-56.39,178.89-128.95l29.46-26.54c1.5-1.35,1.62-3.65.27-5.15Z"/><g><polygon class="cls-2" points="197.57 309.94 313.61 193.9 434.24 314.54 434.28 314.58 449.67 299.19 394.07 243.59 394.07 178.75 364.37 178.75 364.37 213.89 313.65 163.17 313.61 163.13 182.22 294.51 182.18 294.55 197.53 309.9 197.57 309.94"/><path class="cls-2" d="m423.23,422.46v-19h-10.03v-99.56l-99.55-99.55-.04-.04-94.73,94.72-.02.02v104.42h-10.03v19h-29.03v9.62h272.45v-9.62h-29.03Zm-174.17-19.53v-95.67h57.41v95.67h-57.41Zm86.03-75.9v-19.78h19.78v19.78h-19.78Zm0,29.39v-19.78h19.78v19.78h-19.78Zm29.39-29.39v-19.78h19.77v19.78h-19.77Zm0,29.39v-19.78h19.77v19.78h-19.77Z"/><rect class="cls-2" x="257.98" y="344.21" width="10.41" height="20.5"/></g></svg>